<?xml version="1.0" standalone="no"?>
<!DOCTYPE svg PUBLIC "-//W3C//DTD SVG 20010904//EN"
 "http://www.w3.org/TR/2001/REC-SVG-20010904/DTD/svg10.dtd">
<svg version="1.0" xmlns="http://www.w3.org/2000/svg"
 width="500.000000pt" height="500.000000pt" viewBox="0 0 500.000000 500.000000"
 preserveAspectRatio="xMidYMid meet">
<metadata>
Created by potrace 1.14, written by Peter Selinger 2001-2017
</metadata>
<g transform="translate(0.000000,500.000000) scale(0.100000,-0.100000)"
fill="#000000" stroke="none">
<path d="M417 4738 c-20 -6 -59 -30 -86 -54 -89 -80 -81 129 -79 -2198 l3
-2061 22 -41 c12 -22 38 -55 57 -72 76 -66 -71 -63 2191 -60 l2050 3 45 27
c62 37 95 75 114 133 15 46 16 228 14 2105 l-3 2055 -22 41 c-30 56 -94 109
-148 123 -58 15 -4102 14 -4158 -1z"/>
</g>
</svg>
